<?xml version="1.0" encoding="utf-8"?>
<!-- Generator: Adobe Illustrator 22.0.0, SVG Export Plug-In . SVG Version: 6.00 Build 0)  -->
<svg version="1.1" id="Layer_1" xmlns="http://www.w3.org/2000/svg" xmlns:xlink="http://www.w3.org/1999/xlink" x="0px" y="0px"
	 viewBox="0 0 235.7 235.3" style="enable-background:new 0 0 235.7 235.3;" xml:space="preserve">
<style type="text/css">
	.st0{fill:#FFFFFF;}
</style>
<g>
	<path class="st0" d="M119,2.3C54.4,2.3,2,54.7,2,119.3s52.4,117,117,117s117-52.4,117-117S183.6,2.3,119,2.3z M185,169.9
		c4.9,2.5,6.9,8.5,4.4,13.4c-1.8,3.5-5.3,5.5-8.9,5.5c-1.5,0-3.1-0.3-4.5-1.1l-118-60c-3.4-1.7-5.5-5.1-5.5-8.9s2.1-7.2,5.5-8.9
		l118-60c4.9-2.5,10.9-0.6,13.4,4.4c2.5,4.9,0.6,10.9-4.4,13.4L84.6,118.8L185,169.9z"/>
</g>
</svg>
