<?xml version="1.0" encoding="utf-8"?>
<!-- Generator: Adobe Illustrator 22.0.0, SVG Export Plug-In . SVG Version: 6.00 Build 0)  -->
<svg version="1.1" id="Layer_1" xmlns="http://www.w3.org/2000/svg" xmlns:xlink="http://www.w3.org/1999/xlink" x="0px" y="0px"
	 viewBox="0 0 237 237" style="enable-background:new 0 0 237 237;" xml:space="preserve">
<style type="text/css">
	.st0{fill:#FFFFFF;}
</style>
<g>
	<path class="st0" d="M117.1,0.9c-64.6,0-117,52.4-117,117s52.4,117,117,117s117-52.4,117-117S181.7,0.9,117.1,0.9z M183.1,126.3
		l-118,60c-1.5,0.7-3,1.1-4.5,1.1c-3.6,0-7.2-2-8.9-5.5c-2.5-4.9-0.5-10.9,4.4-13.4l100.5-51.1L56.1,66.3c-4.9-2.5-6.9-8.5-4.4-13.4
		c2.5-4.9,8.5-6.9,13.4-4.4l118,60c3.4,1.7,5.5,5.2,5.5,8.9C188.6,121.2,186.5,124.6,183.1,126.3z"/>
</g>
</svg>
