<?xml version="1.0" encoding="utf-8"?>
<!-- Generator: Adobe Illustrator 22.0.0, SVG Export Plug-In . SVG Version: 6.00 Build 0)  -->
<svg version="1.1" id="Layer_1" xmlns="http://www.w3.org/2000/svg" xmlns:xlink="http://www.w3.org/1999/xlink" x="0px" y="0px"
	 viewBox="0 0 1366 57.6" style="enable-background:new 0 0 1366 57.6;" xml:space="preserve">
<style type="text/css">
	.st0{fill:url(#SVGID_1_);}
	.st1{fill:url(#SVGID_2_);}
	.st2{fill:url(#SVGID_3_);}
	.st3{fill:url(#SVGID_4_);}
	.st4{fill:url(#SVGID_5_);}
	.st5{fill:url(#SVGID_6_);}
	.st6{fill:url(#SVGID_7_);}
	.st7{fill:url(#SVGID_8_);}
	.st8{fill:url(#SVGID_9_);}
	.st9{fill:url(#SVGID_10_);}
	.st10{fill:url(#SVGID_11_);}
	.st11{fill:url(#SVGID_12_);}
	.st12{fill:url(#SVGID_13_);}
	.st13{fill:url(#SVGID_14_);}
	.st14{fill:url(#SVGID_15_);}
	.st15{fill:url(#SVGID_16_);}
	.st16{fill:url(#SVGID_17_);}
	.st17{fill:url(#SVGID_18_);}
	.st18{fill:url(#SVGID_19_);}
	.st19{fill:url(#SVGID_20_);}
	.st20{fill:url(#SVGID_21_);}
	.st21{fill:url(#SVGID_22_);}
	.st22{fill:url(#SVGID_23_);}
	.st23{fill:url(#SVGID_24_);}
	.st24{fill:url(#SVGID_25_);}
	.st25{fill:url(#SVGID_26_);}
	.st26{fill:url(#SVGID_27_);}
	.st27{fill:url(#SVGID_28_);}
	.st28{fill:url(#SVGID_29_);}
	.st29{fill:url(#SVGID_30_);}
	.st30{fill:url(#SVGID_31_);}
	.st31{fill:url(#SVGID_32_);}
	.st32{fill:url(#SVGID_33_);}
	.st33{fill:url(#SVGID_34_);}
</style>
<linearGradient id="SVGID_1_" gradientUnits="userSpaceOnUse" x1="19.5956" y1="57.0714" x2="19.5956" y2="45.5714">
	<stop  offset="0" style="stop-color:#1C1C1C"/>
	<stop  offset="1" style="stop-color:#1C1C1C"/>
</linearGradient>
<polygon class="st0" points="-0.5,57.1 22.6,45.6 39.7,57.1 "/>
<linearGradient id="SVGID_2_" gradientUnits="userSpaceOnUse" x1="59.7868" y1="57.0714" x2="59.7868" y2="45.5714">
	<stop  offset="0" style="stop-color:#1C1C1C"/>
	<stop  offset="1" style="stop-color:#1C1C1C"/>
</linearGradient>
<polygon class="st1" points="39.7,57.1 62.8,45.6 79.9,57.1 "/>
<linearGradient id="SVGID_3_" gradientUnits="userSpaceOnUse" x1="99.9779" y1="57.0714" x2="99.9779" y2="45.5714">
	<stop  offset="0" style="stop-color:#1C1C1C"/>
	<stop  offset="1" style="stop-color:#1C1C1C"/>
</linearGradient>
<polygon class="st2" points="79.9,57.1 103,45.6 120.1,57.1 "/>
<linearGradient id="SVGID_4_" gradientUnits="userSpaceOnUse" x1="140.1691" y1="57.0714" x2="140.1691" y2="45.5714">
	<stop  offset="0" style="stop-color:#1C1C1C"/>
	<stop  offset="1" style="stop-color:#1C1C1C"/>
</linearGradient>
<polygon class="st3" points="120.1,57.1 143.2,45.6 160.3,57.1 "/>
<linearGradient id="SVGID_5_" gradientUnits="userSpaceOnUse" x1="180.3603" y1="57.0714" x2="180.3603" y2="45.5714">
	<stop  offset="0" style="stop-color:#1C1C1C"/>
	<stop  offset="1" style="stop-color:#1C1C1C"/>
</linearGradient>
<polygon class="st4" points="160.3,57.1 183.4,45.6 200.5,57.1 "/>
<linearGradient id="SVGID_6_" gradientUnits="userSpaceOnUse" x1="220.5515" y1="57.0714" x2="220.5515" y2="45.5714">
	<stop  offset="0" style="stop-color:#1C1C1C"/>
	<stop  offset="1" style="stop-color:#1C1C1C"/>
</linearGradient>
<polygon class="st5" points="200.5,57.1 223.6,45.6 240.6,57.1 "/>
<linearGradient id="SVGID_7_" gradientUnits="userSpaceOnUse" x1="260.7426" y1="57.0714" x2="260.7426" y2="45.5714">
	<stop  offset="0" style="stop-color:#1C1C1C"/>
	<stop  offset="1" style="stop-color:#1C1C1C"/>
</linearGradient>
<polygon class="st6" points="240.6,57.1 263.8,45.6 280.8,57.1 "/>
<linearGradient id="SVGID_8_" gradientUnits="userSpaceOnUse" x1="300.9338" y1="57.0714" x2="300.9338" y2="45.5714">
	<stop  offset="0" style="stop-color:#1C1C1C"/>
	<stop  offset="1" style="stop-color:#1C1C1C"/>
</linearGradient>
<polygon class="st7" points="280.8,57.1 303.9,45.6 321,57.1 "/>
<linearGradient id="SVGID_9_" gradientUnits="userSpaceOnUse" x1="341.125" y1="57.0714" x2="341.125" y2="45.5714">
	<stop  offset="0" style="stop-color:#1C1C1C"/>
	<stop  offset="1" style="stop-color:#1C1C1C"/>
</linearGradient>
<polygon class="st8" points="321,57.1 344.1,45.6 361.2,57.1 "/>
<linearGradient id="SVGID_10_" gradientUnits="userSpaceOnUse" x1="381.3162" y1="57.0714" x2="381.3162" y2="45.5714">
	<stop  offset="0" style="stop-color:#1C1C1C"/>
	<stop  offset="1" style="stop-color:#1C1C1C"/>
</linearGradient>
<polygon class="st9" points="361.2,57.1 384.3,45.6 401.4,57.1 "/>
<linearGradient id="SVGID_11_" gradientUnits="userSpaceOnUse" x1="421.5074" y1="57.0714" x2="421.5074" y2="45.5714">
	<stop  offset="0" style="stop-color:#1C1C1C"/>
	<stop  offset="1" style="stop-color:#1C1C1C"/>
</linearGradient>
<polygon class="st10" points="401.4,57.1 424.5,45.6 441.6,57.1 "/>
<linearGradient id="SVGID_12_" gradientUnits="userSpaceOnUse" x1="461.6985" y1="57.0714" x2="461.6985" y2="45.5714">
	<stop  offset="0" style="stop-color:#1C1C1C"/>
	<stop  offset="1" style="stop-color:#1C1C1C"/>
</linearGradient>
<polygon class="st11" points="441.6,57.1 464.7,45.6 481.8,57.1 "/>
<linearGradient id="SVGID_13_" gradientUnits="userSpaceOnUse" x1="501.8897" y1="57.0714" x2="501.8897" y2="45.5714">
	<stop  offset="0" style="stop-color:#1C1C1C"/>
	<stop  offset="1" style="stop-color:#1C1C1C"/>
</linearGradient>
<polygon class="st12" points="481.8,57.1 504.9,45.6 522,57.1 "/>
<linearGradient id="SVGID_14_" gradientUnits="userSpaceOnUse" x1="542.0809" y1="57.0714" x2="542.0809" y2="45.5714">
	<stop  offset="0" style="stop-color:#1C1C1C"/>
	<stop  offset="1" style="stop-color:#1C1C1C"/>
</linearGradient>
<polygon class="st13" points="522,57.1 545.1,45.6 562.2,57.1 "/>
<linearGradient id="SVGID_15_" gradientUnits="userSpaceOnUse" x1="582.272" y1="57.0714" x2="582.272" y2="45.5714">
	<stop  offset="0" style="stop-color:#1C1C1C"/>
	<stop  offset="1" style="stop-color:#1C1C1C"/>
</linearGradient>
<polygon class="st14" points="562.2,57.1 585.3,45.6 602.4,57.1 "/>
<linearGradient id="SVGID_16_" gradientUnits="userSpaceOnUse" x1="622.4633" y1="57.0714" x2="622.4633" y2="45.5714">
	<stop  offset="0" style="stop-color:#1C1C1C"/>
	<stop  offset="1" style="stop-color:#1C1C1C"/>
</linearGradient>
<polygon class="st15" points="602.4,57.1 625.5,45.6 642.6,57.1 "/>
<linearGradient id="SVGID_17_" gradientUnits="userSpaceOnUse" x1="662.6544" y1="57.0714" x2="662.6544" y2="45.5714">
	<stop  offset="0" style="stop-color:#1C1C1C"/>
	<stop  offset="1" style="stop-color:#1C1C1C"/>
</linearGradient>
<polygon class="st16" points="642.6,57.1 665.7,45.6 682.8,57.1 "/>
<linearGradient id="SVGID_18_" gradientUnits="userSpaceOnUse" x1="702.8456" y1="57.0714" x2="702.8456" y2="45.5714">
	<stop  offset="0" style="stop-color:#1C1C1C"/>
	<stop  offset="1" style="stop-color:#1C1C1C"/>
</linearGradient>
<polygon class="st17" points="682.8,57.1 705.9,45.6 722.9,57.1 "/>
<linearGradient id="SVGID_19_" gradientUnits="userSpaceOnUse" x1="743.0367" y1="57.0714" x2="743.0367" y2="45.5714">
	<stop  offset="0" style="stop-color:#1C1C1C"/>
	<stop  offset="1" style="stop-color:#1C1C1C"/>
</linearGradient>
<polygon class="st18" points="722.9,57.1 746.1,45.6 763.1,57.1 "/>
<linearGradient id="SVGID_20_" gradientUnits="userSpaceOnUse" x1="783.228" y1="57.0714" x2="783.228" y2="45.5714">
	<stop  offset="0" style="stop-color:#1C1C1C"/>
	<stop  offset="1" style="stop-color:#1C1C1C"/>
</linearGradient>
<polygon class="st19" points="763.1,57.1 786.2,45.6 803.3,57.1 "/>
<linearGradient id="SVGID_21_" gradientUnits="userSpaceOnUse" x1="823.4191" y1="57.0714" x2="823.4191" y2="45.5714">
	<stop  offset="0" style="stop-color:#1C1C1C"/>
	<stop  offset="1" style="stop-color:#1C1C1C"/>
</linearGradient>
<polygon class="st20" points="803.3,57.1 826.4,45.6 843.5,57.1 "/>
<linearGradient id="SVGID_22_" gradientUnits="userSpaceOnUse" x1="863.6103" y1="57.0714" x2="863.6103" y2="45.5714">
	<stop  offset="0" style="stop-color:#1C1C1C"/>
	<stop  offset="1" style="stop-color:#1C1C1C"/>
</linearGradient>
<polygon class="st21" points="843.5,57.1 866.6,45.6 883.7,57.1 "/>
<linearGradient id="SVGID_23_" gradientUnits="userSpaceOnUse" x1="903.8015" y1="57.0714" x2="903.8015" y2="45.5714">
	<stop  offset="0" style="stop-color:#1C1C1C"/>
	<stop  offset="1" style="stop-color:#1C1C1C"/>
</linearGradient>
<polygon class="st22" points="883.7,57.1 906.8,45.6 923.9,57.1 "/>
<linearGradient id="SVGID_24_" gradientUnits="userSpaceOnUse" x1="943.9927" y1="57.0714" x2="943.9927" y2="45.5714">
	<stop  offset="0" style="stop-color:#1C1C1C"/>
	<stop  offset="1" style="stop-color:#1C1C1C"/>
</linearGradient>
<polygon class="st23" points="923.9,57.1 947,45.6 964.1,57.1 "/>
<linearGradient id="SVGID_25_" gradientUnits="userSpaceOnUse" x1="984.1838" y1="57.0714" x2="984.1838" y2="45.5714">
	<stop  offset="0" style="stop-color:#1C1C1C"/>
	<stop  offset="1" style="stop-color:#1C1C1C"/>
</linearGradient>
<polygon class="st24" points="964.1,57.1 987.2,45.6 1004.3,57.1 "/>
<linearGradient id="SVGID_26_" gradientUnits="userSpaceOnUse" x1="1024.375" y1="57.0714" x2="1024.375" y2="45.5714">
	<stop  offset="0" style="stop-color:#1C1C1C"/>
	<stop  offset="1" style="stop-color:#1C1C1C"/>
</linearGradient>
<polygon class="st25" points="1004.3,57.1 1027.4,45.6 1044.5,57.1 "/>
<linearGradient id="SVGID_27_" gradientUnits="userSpaceOnUse" x1="1064.5662" y1="57.0714" x2="1064.5662" y2="45.5714">
	<stop  offset="0" style="stop-color:#1C1C1C"/>
	<stop  offset="1" style="stop-color:#1C1C1C"/>
</linearGradient>
<polygon class="st26" points="1044.5,57.1 1067.6,45.6 1084.7,57.1 "/>
<linearGradient id="SVGID_28_" gradientUnits="userSpaceOnUse" x1="1104.7573" y1="57.0714" x2="1104.7573" y2="45.5714">
	<stop  offset="0" style="stop-color:#1C1C1C"/>
	<stop  offset="1" style="stop-color:#1C1C1C"/>
</linearGradient>
<polygon class="st27" points="1084.7,57.1 1107.8,45.6 1124.9,57.1 "/>
<linearGradient id="SVGID_29_" gradientUnits="userSpaceOnUse" x1="1144.9485" y1="57.0714" x2="1144.9485" y2="45.5714">
	<stop  offset="0" style="stop-color:#1C1C1C"/>
	<stop  offset="1" style="stop-color:#1C1C1C"/>
</linearGradient>
<polygon class="st28" points="1124.9,57.1 1148,45.6 1165,57.1 "/>
<linearGradient id="SVGID_30_" gradientUnits="userSpaceOnUse" x1="1185.1396" y1="57.0714" x2="1185.1396" y2="45.5714">
	<stop  offset="0" style="stop-color:#1C1C1C"/>
	<stop  offset="1" style="stop-color:#1C1C1C"/>
</linearGradient>
<polygon class="st29" points="1165,57.1 1188.2,45.6 1205.2,57.1 "/>
<linearGradient id="SVGID_31_" gradientUnits="userSpaceOnUse" x1="1225.3309" y1="57.0714" x2="1225.3309" y2="45.5714">
	<stop  offset="0" style="stop-color:#1C1C1C"/>
	<stop  offset="1" style="stop-color:#1C1C1C"/>
</linearGradient>
<polygon class="st30" points="1205.2,57.1 1228.3,45.6 1245.4,57.1 "/>
<linearGradient id="SVGID_32_" gradientUnits="userSpaceOnUse" x1="1265.5221" y1="57.0714" x2="1265.5221" y2="45.5714">
	<stop  offset="0" style="stop-color:#1C1C1C"/>
	<stop  offset="1" style="stop-color:#1C1C1C"/>
</linearGradient>
<polygon class="st31" points="1245.4,57.1 1268.5,45.6 1285.6,57.1 "/>
<linearGradient id="SVGID_33_" gradientUnits="userSpaceOnUse" x1="1305.7133" y1="57.0714" x2="1305.7133" y2="45.5714">
	<stop  offset="0" style="stop-color:#1C1C1C"/>
	<stop  offset="1" style="stop-color:#1C1C1C"/>
</linearGradient>
<polygon class="st32" points="1285.6,57.1 1308.7,45.6 1325.8,57.1 "/>
<linearGradient id="SVGID_34_" gradientUnits="userSpaceOnUse" x1="1345.9044" y1="57.0714" x2="1345.9044" y2="45.5714">
	<stop  offset="0" style="stop-color:#1C1C1C"/>
	<stop  offset="1" style="stop-color:#1C1C1C"/>
</linearGradient>
<polygon class="st33" points="1325.8,57.1 1348.9,45.6 1366,57.1 "/>
</svg>
